<?xml version="1.0" encoding="utf-8"?>
<!-- Generator: Adobe Illustrator 25.0.0, SVG Export Plug-In . SVG Version: 6.00 Build 0)  -->
<svg version="1.1" id="Layer_1" xmlns="http://www.w3.org/2000/svg" xmlns:xlink="http://www.w3.org/1999/xlink" x="0px" y="0px"
	 viewBox="0 0 841.89 595.28" style="enable-background:new 0 0 841.89 595.28;" xml:space="preserve">
<style type="text/css">
	.st0{fill:#A6244B;}
	.st1{fill:#277BAB;}
	.st2{fill:#287BAB;}
</style>
<g>
	<g>
		<path class="st0" d="M371.83,307.3l7.56-33.71h9.78l-7.46,33.71H371.83z M417.15,273.59h9.78l-7.46,33.71h-9.87l3.23-14.35
			l-10.4,14.35h-5.88c-1.19,0-2.07-0.24-2.65-0.72c-0.58-0.48-0.98-1.22-1.2-2.21l-4.48-17.24l2.94-13.53
			c0.83,0,1.54,0.29,2.12,0.87c0.58,0.58,0.98,1.25,1.2,2.02l5.3,20.61L417.15,273.59z"/>
		<path class="st0" d="M464.44,273.55c0.96,0,1.7,0.13,2.21,0.38c0.51,0.26,0.77,0.77,0.77,1.54c0,0.26-0.05,0.58-0.14,0.96
			l-1.06,4.67l-4.04,17.72l-1.3,5.59c-0.26,1.12-0.74,1.89-1.44,2.31c-0.71,0.42-1.61,0.61-2.7,0.58l-17.72-0.05l1.25-5.54
			c0.26-1.12,0.74-1.89,1.45-2.31c0.71-0.42,1.61-0.61,2.7-0.58h7.99l4-17.72l-13.68,0.05l-5.92,26.15h-9.87l5.97-26.15l0.96-4.19
			c0.26-1.09,0.65-1.93,1.18-2.5c0.53-0.58,1.39-0.87,2.58-0.87L464.44,273.55z"/>
		<path class="st0" d="M473.2,281.44l1.69-7.85h33.95l-1.11,5.01c-0.26,1.12-0.74,1.89-1.45,2.31c-0.71,0.42-1.61,0.61-2.7,0.58
			L473.2,281.44z M489.87,307.3h-9.87l5.35-24.08h9.78L489.87,307.3z"/>
		<path class="st0" d="M539.61,273.59h9.82l-6.07,26.15l-0.96,4.19c-0.26,1.09-0.65,1.93-1.18,2.5c-0.53,0.58-1.39,0.87-2.58,0.87
			l-26.82,0.05c-0.96,0-1.7-0.13-2.21-0.38c-0.51-0.26-0.77-0.77-0.77-1.54c0-0.26,0.05-0.58,0.14-0.96l1.06-4.67l23.5-0.05
			L539.61,273.59z M516.01,273.59h9.78l-5.59,24.46h-9.82L516.01,273.59z"/>
		<path class="st0" d="M574.19,299.74l1.06-4.58h9.87l-2.12,8.76c-0.26,1.09-0.65,1.93-1.18,2.5c-0.53,0.58-1.39,0.87-2.58,0.87
			l-26.82,0.05c-0.96,0-1.7-0.13-2.21-0.38c-0.51-0.26-0.77-0.77-0.77-1.54c0-0.26,0.05-0.58,0.14-0.96l0.05-0.24l1.25-5.49
			c0.22-1.06,0.59-1.88,1.08-2.46c0.5-0.58,1.32-0.87,2.48-0.87h5.78l-0.63,2.55l-0.39,1.83L574.19,299.74z M586.27,273.55
			c0.96,0,1.7,0.13,2.21,0.38c0.51,0.26,0.77,0.77,0.77,1.54c0,0.26-0.05,0.58-0.14,0.96l-0.05,0.24l-1.25,5.49
			c-0.22,1.06-0.59,1.88-1.08,2.46c-0.5,0.58-1.32,0.87-2.48,0.87h-5.78l0.63-2.55l0.39-1.83l-14.93,0.05l-1.4,6.07l20.27-0.05
			c0.96,0,1.72,0.14,2.29,0.41c0.56,0.27,0.84,0.78,0.84,1.52c0,0.29-0.05,0.61-0.14,0.96l-0.87,3.42l-23.79,0.05h-6.41
			c-0.93,0-1.67-0.14-2.21-0.43c-0.55-0.29-0.82-0.8-0.82-1.54c0-0.29,0.05-0.59,0.14-0.91l0.82-3.42l2.41-10.26
			c0.26-1.09,0.65-1.93,1.18-2.5c0.53-0.58,1.39-0.87,2.58-0.87L586.27,273.55z"/>
	</g>
</g>
<g>
	<g>
		<path class="st1" d="M376.25,332.54c-0.26,0-0.35-0.15-0.29-0.46l1.97-9.2c0.04-0.24-0.05-0.36-0.31-0.36h-5.99l0.47-2.28
			c0.07-0.31,0.26-0.46,0.58-0.46h15.01l-0.47,2.24c-0.07,0.33-0.27,0.49-0.6,0.49h-5.52c-0.24,0-0.4,0.13-0.44,0.36l-2.06,9.66
			H376.25z"/>
		<path class="st1" d="M401.38,332.54h-3.01l-1.18-3.64h-7.78l-0.78,3.64h-2.73l2.6-12.3c0.07-0.31,0.22-0.46,0.47-0.46h11.81
			c2.08,0,3.02,0.58,2.84,1.75s-0.36,2.15-0.53,2.95c-0.15,0.71-0.33,1.42-0.51,2.13c-0.31,1.18-1.15,1.89-2.48,2.17L401.38,332.54z
			 M399.08,326.16c0.62,0,0.98-0.31,1.11-0.91l0.38-1.8c0.13-0.62-0.11-0.93-0.71-0.93h-8.56c-0.36,0-0.58,0.16-0.66,0.47l-0.56,2.7
			c-0.07,0.31,0.07,0.47,0.44,0.47H399.08z"/>
		<path class="st1" d="M406.91,330.72l-1.42,1.82h-3.21l10.02-12.75h3.21l4.59,12.75h-3.21l-0.66-1.82H406.91z M413.62,323.43h-0.98
			l-3.57,4.55h6.19L413.62,323.43z"/>
		<path class="st1" d="M421.4,332.54c-0.25,0-0.35-0.15-0.29-0.46l2.51-11.84c0.07-0.31,0.22-0.46,0.47-0.46h2.37l8.07,9.15
			l1.95-9.15h2.37c0.24,0,0.33,0.15,0.26,0.46l-2.53,11.93c-0.05,0.24-0.2,0.36-0.44,0.36h-2.37l-8.09-9.11l-1.93,9.11H421.4z"/>
		<path class="st1" d="M453.79,328.66c-0.55,2.59-1.95,3.88-4.21,3.88h-8.85c-2.21,0-3.06-1.11-2.59-3.33v-0.04l0.24-1.18h2.73
			l-0.18,0.91c-0.15,0.6,0.11,0.91,0.71,0.91h8.2c0.6,0,0.97-0.29,1.09-0.88l0.11-0.53c0.13-0.6-0.11-0.91-0.71-0.91h-9.11
			c-1.88,0-2.53-1.29-1.99-3.86c0.55-2.57,1.75-3.84,3.63-3.84h9.44c2.08,0,2.93,1.06,2.6,3.19l-0.25,1.37h-2.73l0.18-0.89
			c0.13-0.62-0.11-0.93-0.71-0.93h-8.2c-0.6,0-0.98,0.31-1.11,0.93l-0.09,0.44c-0.13,0.6,0.11,0.91,0.71,0.91h8.53
			C453.48,324.8,454.34,326.09,453.79,328.66z"/>
		<path class="st1" d="M457.32,328.9l-0.78,3.64h-2.73l2.61-12.3c0.07-0.31,0.22-0.46,0.47-0.46h11.81c2.08,0,3.02,0.56,2.84,1.69
			c-0.16,1.15-0.33,2.09-0.49,2.86c-0.16,0.75-0.35,1.51-0.56,2.28c-0.4,1.51-1.64,2.26-3.72,2.26L457.32,328.9z M467,326.16
			c0.62,0,0.98-0.29,1.11-0.87l0.38-1.84c0.13-0.62-0.11-0.93-0.71-0.93h-8.56c-0.36,0-0.58,0.16-0.66,0.47l-0.57,2.7
			c-0.07,0.31,0.07,0.47,0.44,0.47H467z"/>
		<path class="st1" d="M473.48,332.54c-2.08,0-2.97-0.8-2.7-2.41c0.27-1.58,0.53-2.92,0.75-3.97c0.24-1.07,0.47-2.13,0.75-3.19
			c0.53-2.13,1.84-3.19,3.92-3.19h8.85c2.08,0,2.97,0.8,2.7,2.39c-0.25,1.58-0.51,2.92-0.75,3.99c-0.22,1.06-0.47,2.11-0.75,3.19
			c-0.53,2.13-1.84,3.19-3.92,3.19H473.48z M482.59,329.81c0.6,0,0.96-0.29,1.09-0.88l1.17-5.48c0.13-0.62-0.11-0.93-0.71-0.93h-8.2
			c-0.6,0-0.98,0.31-1.11,0.93l-1.15,5.45c-0.15,0.6,0.11,0.91,0.71,0.91H482.59z"/>
		<path class="st1" d="M502.07,332.54h-3.01l-1.18-3.64h-7.78l-0.78,3.64h-2.73l2.61-12.3c0.07-0.31,0.22-0.46,0.47-0.46h11.81
			c2.08,0,3.02,0.58,2.84,1.75s-0.36,2.15-0.53,2.95c-0.15,0.71-0.33,1.42-0.51,2.13c-0.31,1.18-1.15,1.89-2.48,2.17L502.07,332.54z
			 M499.77,326.16c0.62,0,0.98-0.31,1.11-0.91l0.38-1.8c0.13-0.62-0.11-0.93-0.71-0.93h-8.56c-0.36,0-0.58,0.16-0.66,0.47l-0.57,2.7
			c-0.07,0.31,0.07,0.47,0.44,0.47H499.77z"/>
		<path class="st1" d="M509.73,332.54c-0.25,0-0.35-0.15-0.29-0.46l1.97-9.2c0.04-0.24-0.05-0.36-0.31-0.36h-5.99l0.47-2.28
			c0.07-0.31,0.25-0.46,0.58-0.46h15.01l-0.47,2.24c-0.07,0.33-0.27,0.49-0.6,0.49h-5.52c-0.24,0-0.4,0.13-0.44,0.36l-2.06,9.66
			H509.73z"/>
		<path class="st1" d="M518.48,330.72l-1.42,1.82h-3.21l10.02-12.75h3.21l4.59,12.75h-3.21l-0.66-1.82H518.48z M525.18,323.43h-0.98
			l-3.57,4.55h6.19L525.18,323.43z"/>
		<path class="st1" d="M533.82,332.54c-0.25,0-0.35-0.15-0.29-0.46l1.97-9.2c0.04-0.24-0.05-0.36-0.31-0.36h-5.99l0.47-2.28
			c0.07-0.31,0.25-0.46,0.58-0.46h15.01l-0.47,2.24c-0.07,0.33-0.27,0.49-0.6,0.49h-5.52c-0.24,0-0.4,0.13-0.44,0.36l-2.06,9.66
			H533.82z"/>
		<path class="st1" d="M543.84,332.54c-0.25,0-0.35-0.15-0.29-0.46l2.51-11.84c0.07-0.31,0.22-0.46,0.47-0.46h2.37l-2.71,12.75
			H543.84z"/>
		<path class="st1" d="M550.38,332.54c-2.08,0-2.97-0.8-2.7-2.41c0.27-1.58,0.53-2.92,0.75-3.97c0.24-1.07,0.47-2.13,0.75-3.19
			c0.53-2.13,1.84-3.19,3.92-3.19h8.85c2.08,0,2.97,0.8,2.7,2.39c-0.25,1.58-0.51,2.92-0.75,3.99c-0.22,1.06-0.47,2.11-0.75,3.19
			c-0.53,2.13-1.84,3.19-3.92,3.19H550.38z M559.49,329.81c0.6,0,0.96-0.29,1.09-0.88l1.17-5.48c0.13-0.62-0.11-0.93-0.71-0.93h-8.2
			c-0.6,0-0.98,0.31-1.11,0.93l-1.15,5.45c-0.15,0.6,0.11,0.91,0.71,0.91H559.49z"/>
		<path class="st1" d="M563.86,332.54c-0.25,0-0.35-0.15-0.29-0.46l2.51-11.84c0.07-0.31,0.22-0.46,0.47-0.46h2.37l8.07,9.15
			l1.95-9.15h2.37c0.24,0,0.33,0.15,0.25,0.46l-2.53,11.93c-0.05,0.24-0.2,0.36-0.44,0.36h-2.37l-8.09-9.11l-1.93,9.11H563.86z"/>
	</g>
</g>
<g>
	<path class="st2" d="M348.14,280.97c-8.28,0.01-16.84,0.02-25.24-0.03c-1.6-0.03-3.95,0.26-5.6,2.73c-0.34,0.5-0.74,1-1.21,1.58
		c-0.27,0.34-0.56,0.7-0.86,1.09l-2.93,3.79h31.77L323.09,311l5.67,5.57c2.08,2.05,4.13,4.06,6.2,6.09l-65.11,0.1l11.82,8.25
		c0.99,0.69,2.16,1.06,3.37,1.06c0,0,0,0,0,0l64.89-0.06l2.23-5.78l-1.21-1.08c-2.33-2.09-4.67-4.25-6.94-6.41
		c-2.51-2.4-5.01-4.86-7.44-7.36c3.97-4.01,7.32-7.49,10.57-10.88c3.65-3.8,7.43-7.72,12.11-12.42l0.68-0.68l0.05-6.42
		L348.14,280.97z"/>
	<path class="st2" d="M308.13,317.75c1.56,0,3.08-0.64,4.18-1.76l7.12-7.32l-5.57-0.01c-16.51-0.02-20.27-0.04-24.04-0.06
		c-3.77-0.02-7.54-0.04-24.06-0.06l-2.36,0v9.04L308.13,317.75C308.12,317.75,308.12,317.75,308.13,317.75z"/>
	<path class="st2" d="M291.28,303.54h16.62c1.1,0,2.21,0,3.31,0.01c1.09,0,2.18,0.01,3.29,0.01c1.96,0,3.94-0.01,5.92-0.06
		c1.28-0.04,2.7-0.59,3.79-1.47c0.93-0.74,1.72-1.56,2.55-2.43c0.36-0.38,0.74-0.77,1.16-1.18l4.07-4.03h-31.52
		c5.7-11.15,20-21.64,36.67-21.64c0.13,0,0.25,0,0.38,0c4.7,0.05,9.27,0.84,13.58,2.35l3.13,1.09v-9.77l-1.65-0.52
		c-2.89-0.9-5.88-1.54-8.89-1.9c-25.93-3.15-45.82,12.46-53.55,30.42l-1.07-0.01c-2.86-0.01-7.1-0.04-12.41-0.1l-1.65-0.02
		c-1.53-0.02-4.27-0.03-17.48-0.05l-2.41,0v9.32L291.28,303.54L291.28,303.54z"/>
	<path class="st2" d="M280.8,289.69c1.56,0,3.08-0.64,4.18-1.76l7.13-7.32l-5.57-0.01c-9.6-0.01-14.61-0.02-15.62-0.04
		c-0.18-0.02-0.38-0.04-0.59-0.04c-0.39,0-1.06-0.01-2.17-0.01c-2.21-0.01-6.2-0.02-13.28-0.02l-2.36,0v9.04L280.8,289.69
		C280.8,289.69,280.8,289.69,280.8,289.69z"/>
</g>
</svg>
